<svg width="419" height="226" viewBox="0 0 419 226" fill="none" xmlns="http://www.w3.org/2000/svg">
	<path d="M209.977 74.466H236.918C240.784 74.466 243.918 71.332 243.918 67.466V40.527C243.918 36.661 240.784 33.527 236.918 33.527H209.977C206.111 33.527 202.977 36.661 202.977 40.527V67.466C202.977 71.333 206.111 74.466 209.977 74.466ZM216.977 47.527H229.918V60.466H216.977V47.527ZM371.268 91.186H344.328C340.462 91.186 337.328 94.32 337.328 98.186V125.126C337.328 128.992 340.462 132.126 344.328 132.126H371.268C375.134 132.126 378.268 128.992 378.268 125.126V98.186C378.268 94.32 375.134 91.186 371.268 91.186ZM364.268 118.126H351.328V105.186H364.268V118.126ZM401.224 0.0889893H16.865C7.565 0.0889893 0 7.65499 0 16.955V209.135C0 218.434 7.565 226 16.865 226H401.224C410.523 226 418.089 218.435 418.089 209.135V16.955C418.089 7.65499 410.523 0.0889893 401.224 0.0889893ZM404.089 209.134C404.089 210.687 402.777 211.999 401.224 211.999H16.865C15.312 211.999 14 210.686 14 209.134V16.954C14 15.401 15.312 14.089 16.865 14.089H401.224C402.777 14.089 404.089 15.402 404.089 16.954V209.134ZM317.387 74.466H371.267C375.133 74.466 378.267 71.332 378.267 67.466V40.527C378.267 36.661 375.133 33.527 371.267 33.527H317.387C313.521 33.527 310.387 36.661 310.387 40.527V67.466C310.387 71.333 313.521 74.466 317.387 74.466ZM324.387 47.527H364.267V60.466H324.387V47.527ZM263.847 74.466H290.787C294.653 74.466 297.787 71.332 297.787 67.466V40.527C297.787 36.661 294.653 33.527 290.787 33.527H263.847C259.981 33.527 256.847 36.661 256.847 40.527V67.466C256.847 71.333 259.98 74.466 263.847 74.466ZM270.847 47.527H283.787V60.466H270.847V47.527ZM235.04 91.186C231.174 91.186 228.04 94.32 228.04 98.186V125.126C228.04 128.992 231.174 132.126 235.04 132.126H261.98C265.846 132.126 268.98 128.992 268.98 125.126V98.186C268.98 94.32 265.846 91.186 261.98 91.186H235.04ZM254.98 118.126H242.04V105.186H254.98V118.126ZM46.821 91.186C42.955 91.186 39.821 94.32 39.821 98.186V125.126C39.821 128.992 42.955 132.126 46.821 132.126H100.701C104.567 132.126 107.701 128.992 107.701 125.126V98.186C107.701 94.32 104.567 91.186 100.701 91.186H46.821ZM93.701 118.126H53.821V105.186H93.701V118.126ZM181.17 91.186C177.304 91.186 174.17 94.32 174.17 98.186V125.126C174.17 128.992 177.304 132.126 181.17 132.126H208.111C211.977 132.126 215.111 128.992 215.111 125.126V98.186C215.111 94.32 211.977 91.186 208.111 91.186H181.17ZM201.111 118.126H188.17V105.186H201.111V118.126ZM315.849 148.844H102.239C98.373 148.844 95.239 151.978 95.239 155.844V182.784C95.239 186.65 98.373 189.784 102.239 189.784H315.849C319.715 189.784 322.849 186.65 322.849 182.784V155.844C322.849 151.978 319.715 148.844 315.849 148.844ZM308.849 175.785H109.239V162.845H308.849V175.785ZM102.239 74.466H129.178C133.044 74.466 136.178 71.332 136.178 67.466V40.527C136.178 36.661 133.044 33.527 129.178 33.527H102.239C98.373 33.527 95.239 36.661 95.239 40.527V67.466C95.239 71.333 98.373 74.466 102.239 74.466ZM109.239 47.527H122.178V60.466H109.239V47.527ZM46.82 74.466H73.76C77.626 74.466 80.76 71.332 80.76 67.466V40.527C80.76 36.661 77.626 33.527 73.76 33.527H46.82C42.954 33.527 39.82 36.661 39.82 40.527V67.466C39.82 71.333 42.954 74.466 46.82 74.466ZM53.82 47.527H66.76V60.466H53.82V47.527ZM73.761 148.844H46.821C42.955 148.844 39.821 151.978 39.821 155.844V182.784C39.821 186.65 42.955 189.784 46.821 189.784H73.761C77.627 189.784 80.761 186.65 80.761 182.784V155.844C80.761 151.978 77.627 148.844 73.761 148.844ZM66.761 175.785H53.821V162.845H66.761V175.785ZM315.849 91.186H288.91C285.044 91.186 281.91 94.32 281.91 98.186V125.126C281.91 128.992 285.044 132.126 288.91 132.126H315.848C319.714 132.126 322.848 128.992 322.848 125.126V98.186C322.849 94.32 319.715 91.186 315.849 91.186ZM308.849 118.126H295.91V105.186H308.848V118.126H308.849ZM371.268 148.844H344.328C340.462 148.844 337.328 151.978 337.328 155.844V182.784C337.328 186.65 340.462 189.784 344.328 189.784H371.268C375.134 189.784 378.268 186.65 378.268 182.784V155.844C378.268 151.978 375.134 148.844 371.268 148.844ZM364.268 175.785H351.328V162.845H364.268V175.785ZM156.108 74.466H183.048C186.914 74.466 190.048 71.332 190.048 67.466V40.527C190.048 36.661 186.914 33.527 183.048 33.527H156.108C152.242 33.527 149.108 36.661 149.108 40.527V67.466C149.108 71.333 152.243 74.466 156.108 74.466ZM163.108 47.527H176.048V60.466H163.108V47.527ZM127.302 91.186C123.436 91.186 120.302 94.32 120.302 98.186V125.126C120.302 128.992 123.436 132.126 127.302 132.126H154.242C158.108 132.126 161.242 128.992 161.242 125.126V98.186C161.242 94.32 158.108 91.186 154.242 91.186H127.302ZM147.242 118.126H134.302V105.186H147.242V118.126Z" fill="white" />
</svg>