<svg width="502" height="502" viewBox="0 0 502 502" fill="none" xmlns="http://www.w3.org/2000/svg">
<path d="M202.401 380.719C198.494 376.814 192.164 376.814 188.258 380.719C184.353 384.625 184.353 390.957 188.258 394.862L212.316 418.92C214.269 420.873 216.827 421.849 219.387 421.849C221.946 421.849 224.505 420.873 226.459 418.92C230.364 415.014 230.364 408.682 226.459 404.777L202.401 380.719Z" fill="white"/>
<path d="M404.38 404.778C367.263 441.894 310.317 452.061 262.677 430.078C257.66 427.764 251.72 429.953 249.406 434.968C247.093 439.983 249.281 445.924 254.296 448.238C273.561 457.127 294.274 461.65 315.253 461.65C323.469 461.65 331.726 460.956 339.952 459.559C369.844 454.482 397.013 440.429 418.523 418.92C422.428 415.015 422.428 408.683 418.523 404.778C414.617 400.874 408.287 400.873 404.38 404.778Z" fill="white"/>
<path d="M447.352 183.486L318.514 54.648C283.273 19.408 236.419 0 186.581 0C136.746 0 89.895 19.406 54.655 54.642C54.653 54.644 54.65 54.646 54.648 54.648C54.646 54.65 54.644 54.652 54.642 54.655C19.406 89.895 0 136.747 0 186.581C0 236.418 19.408 283.273 54.648 318.514L183.486 447.352C218.727 482.592 265.581 502 315.419 502C365.257 502 412.111 482.592 447.352 447.352C482.592 412.111 502 365.256 502 315.419C502 265.582 482.592 218.727 447.352 183.486ZM433.209 433.209C401.746 464.673 359.914 482 315.419 482C270.924 482 229.092 464.673 197.629 433.21L68.791 304.371C37.327 272.908 20 231.076 20 186.581C20 145.436 34.826 106.575 61.935 76.077L81.258 95.4C74.61 108.083 76.609 124.153 87.255 134.8L123.839 171.383C130.189 177.733 138.631 181.23 147.611 181.23C153.149 181.23 158.48 179.896 163.244 177.387L182.69 196.833C184.643 198.786 187.202 199.762 189.761 199.762C192.32 199.762 194.879 198.786 196.832 196.833C200.737 192.928 200.737 186.596 196.832 182.69L177.38 163.238C184.028 150.555 182.029 134.486 171.383 123.839L134.8 87.255C124.152 76.608 108.083 74.611 95.4 81.258L76.078 61.935C106.575 34.826 145.436 20 186.581 20C231.076 20 272.908 37.327 304.371 68.79L433.209 197.629C464.673 229.092 482 270.924 482 315.419C482 359.914 464.673 401.746 433.209 433.209ZM101.397 101.398C104.052 98.743 107.54 97.415 111.028 97.415C114.515 97.415 118.004 98.743 120.658 101.397L157.241 137.98C162.551 143.292 162.552 151.932 157.241 157.241C154.669 159.814 151.249 161.23 147.611 161.23C143.973 161.23 140.553 159.813 137.981 157.241L101.397 120.658C96.086 115.348 96.086 106.708 101.397 101.398Z" fill="white"/>
</svg>
